<svg width="512" height="512" viewBox="0 0 512 512" fill="none" xmlns="http://www.w3.org/2000/svg">
<rect width="512" height="512" fill="#FAF3F0"/>
<path d="M174.34 311V238.64C174.34 231.68 172.66 226.52 169.3 223.16C166.06 219.68 161.08 217.94 154.36 217.94H100.54L102.52 204.26H155.62C167.26 204.26 176.02 207.14 181.9 212.9C187.9 218.54 190.9 226.94 190.9 238.1V311H174.34ZM103.42 311V250.34L119.98 249.08V311H103.42ZM231.608 349.52V332.24H219.188V325.22H250.868V332.24H238.448V349.52H231.608ZM227.072 311V204.26H243.632V311H227.072ZM210.692 217.94L212.672 204.26H237.872V217.94H210.692ZM341.332 311V238.64C341.332 231.68 339.652 226.52 336.292 223.16C333.052 219.68 328.072 217.94 321.352 217.94H267.532L269.512 204.26H322.612C334.252 204.26 343.012 207.14 348.892 212.9C354.892 218.54 357.892 226.94 357.892 238.1V311H341.332ZM270.412 311V250.34L286.972 249.08V311H270.412ZM397.557 333.68C396.117 333.68 394.917 333.14 393.957 332.06C392.997 331.1 392.517 329.9 392.517 328.46C392.517 327.14 392.997 326 393.957 325.04C394.917 324.08 396.117 323.6 397.557 323.6C398.997 323.6 400.197 324.08 401.157 325.04C402.117 326 402.597 327.14 402.597 328.46C402.597 329.9 402.117 331.1 401.157 332.06C400.197 333.14 398.997 333.68 397.557 333.68ZM397.557 350.78C396.117 350.78 394.917 350.3 393.957 349.34C392.997 348.38 392.517 347.18 392.517 345.74C392.517 344.42 392.997 343.22 393.957 342.14C394.917 341.18 396.117 340.7 397.557 340.7C398.997 340.7 400.197 341.18 401.157 342.14C402.117 343.22 402.597 344.42 402.597 345.74C402.597 347.18 402.117 348.38 401.157 349.34C400.197 350.3 398.997 350.78 397.557 350.78ZM390.548 263.84V204.26H407.108V263.84H390.548ZM374.168 217.94L376.148 204.26H399.908V217.94H374.168Z" fill="#9A7777"/>
<mask id="path-2-outside-1_8_14" maskUnits="userSpaceOnUse" x="125" y="107" width="258" height="292" fill="black">
<rect fill="white" x="125" y="107" width="258" height="292"/>
<path d="M135.44 389V373.04H140.38C145.953 373.04 151.02 372.533 155.58 371.52C160.393 370.253 164.193 367.847 166.98 364.3C170.02 360.5 171.54 354.927 171.54 347.58V159.48C171.54 151.88 170.02 146.307 166.98 142.76C164.193 138.96 160.393 136.553 155.58 135.54C151.02 134.273 145.953 133.64 140.38 133.64H135.44V117.68H237.66C259.7 117.68 277.94 120.467 292.38 126.04C306.82 131.36 317.587 139.467 324.68 150.36C331.773 161 335.32 174.553 335.32 191.02C335.32 204.447 332.533 215.847 326.96 225.22C321.387 234.34 314.293 241.687 305.68 247.26C297.32 252.833 288.58 257.14 279.46 260.18L331.52 342.64C334.813 347.707 337.98 352.14 341.02 355.94C344.06 359.74 347.1 362.907 350.14 365.44C353.433 367.973 356.727 369.873 360.02 371.14C363.567 372.407 367.367 373.04 371.42 373.04H372.56V389H367.24C355.333 389 345.453 388.62 337.6 387.86C330 386.847 323.667 385.2 318.6 382.92C313.533 380.387 308.973 376.84 304.92 372.28C301.12 367.72 297.067 361.893 292.76 354.8L241.46 269.3H209.92V347.58C209.92 354.927 211.313 360.5 214.1 364.3C217.14 367.847 220.94 370.253 225.5 371.52C230.313 372.533 235.507 373.04 241.08 373.04H246.02V389H135.44ZM236.52 251.44C251.467 251.44 263.12 249.287 271.48 244.98C279.84 240.42 285.793 233.833 289.34 225.22C292.887 216.353 294.66 205.333 294.66 192.16C294.66 178.48 292.76 167.587 288.96 159.48C285.16 151.12 278.953 145.167 270.34 141.62C261.727 137.82 250.2 135.92 235.76 135.92H209.92V251.44H236.52Z"/>
</mask>
<path d="M135.44 389V373.04H140.38C145.953 373.04 151.02 372.533 155.58 371.52C160.393 370.253 164.193 367.847 166.98 364.3C170.02 360.5 171.54 354.927 171.54 347.58V159.48C171.54 151.88 170.02 146.307 166.98 142.76C164.193 138.96 160.393 136.553 155.58 135.54C151.02 134.273 145.953 133.64 140.38 133.64H135.44V117.68H237.66C259.7 117.68 277.94 120.467 292.38 126.04C306.82 131.36 317.587 139.467 324.68 150.36C331.773 161 335.32 174.553 335.32 191.02C335.32 204.447 332.533 215.847 326.96 225.22C321.387 234.34 314.293 241.687 305.68 247.26C297.32 252.833 288.58 257.14 279.46 260.18L331.52 342.64C334.813 347.707 337.98 352.14 341.02 355.94C344.06 359.74 347.1 362.907 350.14 365.44C353.433 367.973 356.727 369.873 360.02 371.14C363.567 372.407 367.367 373.04 371.42 373.04H372.56V389H367.24C355.333 389 345.453 388.62 337.6 387.86C330 386.847 323.667 385.2 318.6 382.92C313.533 380.387 308.973 376.84 304.92 372.28C301.12 367.72 297.067 361.893 292.76 354.8L241.46 269.3H209.92V347.58C209.92 354.927 211.313 360.5 214.1 364.3C217.14 367.847 220.94 370.253 225.5 371.52C230.313 372.533 235.507 373.04 241.08 373.04H246.02V389H135.44ZM236.52 251.44C251.467 251.44 263.12 249.287 271.48 244.98C279.84 240.42 285.793 233.833 289.34 225.22C292.887 216.353 294.66 205.333 294.66 192.16C294.66 178.48 292.76 167.587 288.96 159.48C285.16 151.12 278.953 145.167 270.34 141.62C261.727 137.82 250.2 135.92 235.76 135.92H209.92V251.44H236.52Z" fill="#36272E"/>
<path d="M135.44 389H125.44V399H135.44V389ZM135.44 373.04V363.04H125.44V373.04H135.44ZM155.58 371.52L157.749 381.282L157.938 381.24L158.125 381.191L155.58 371.52ZM166.98 364.3L159.171 358.053L159.144 358.087L159.117 358.122L166.98 364.3ZM166.98 142.76L158.916 148.674L159.14 148.98L159.387 149.268L166.98 142.76ZM155.58 135.54L152.904 145.175L153.209 145.26L153.52 145.325L155.58 135.54ZM135.44 133.64H125.44V143.64H135.44V133.64ZM135.44 117.68V107.68H125.44V117.68H135.44ZM292.38 126.04L288.779 135.369L288.851 135.397L288.923 135.423L292.38 126.04ZM324.68 150.36L316.3 155.817L316.33 155.862L316.36 155.907L324.68 150.36ZM326.96 225.22L335.493 230.434L335.524 230.383L335.555 230.331L326.96 225.22ZM305.68 247.26L300.248 238.864L300.19 238.901L300.133 238.939L305.68 247.26ZM279.46 260.18L276.298 250.693L264.192 254.728L271.004 265.518L279.46 260.18ZM331.52 342.64L323.064 347.978L323.1 348.034L323.136 348.09L331.52 342.64ZM341.02 355.94L348.829 349.693L348.829 349.693L341.02 355.94ZM350.14 365.44L343.738 373.122L343.888 373.247L344.043 373.366L350.14 365.44ZM360.02 371.14L356.43 380.473L356.543 380.517L356.657 380.557L360.02 371.14ZM372.56 373.04H382.56V363.04H372.56V373.04ZM372.56 389V399H382.56V389H372.56ZM337.6 387.86L336.278 397.772L336.457 397.796L336.637 397.814L337.6 387.86ZM318.6 382.92L314.128 391.864L314.31 391.956L314.496 392.039L318.6 382.92ZM304.92 372.28L297.238 378.682L297.34 378.804L297.446 378.924L304.92 372.28ZM292.76 354.8L284.185 359.945L284.199 359.967L284.212 359.99L292.76 354.8ZM241.46 269.3L250.035 264.155L247.122 259.3H241.46V269.3ZM209.92 269.3V259.3H199.92V269.3H209.92ZM214.1 364.3L206.036 370.214L206.26 370.52L206.507 370.808L214.1 364.3ZM225.5 371.52L222.824 381.155L223.129 381.24L223.44 381.305L225.5 371.52ZM246.02 373.04H256.02V363.04H246.02V373.04ZM246.02 389V399H256.02V389H246.02ZM271.48 244.98L276.06 253.87L276.165 253.816L276.269 253.759L271.48 244.98ZM289.34 225.22L298.587 229.027L298.606 228.981L298.625 228.934L289.34 225.22ZM288.96 159.48L279.856 163.618L279.881 163.671L279.905 163.724L288.96 159.48ZM270.34 141.62L266.304 150.769L266.417 150.819L266.533 150.867L270.34 141.62ZM209.92 135.92V125.92H199.92V135.92H209.92ZM209.92 251.44H199.92V261.44H209.92V251.44ZM135.44 389H145.44V373.04H135.44H125.44V389H135.44ZM135.44 373.04V383.04H140.38V373.04V363.04H135.44V373.04ZM140.38 373.04V383.04C146.548 383.04 152.356 382.48 157.749 381.282L155.58 371.52L153.411 361.758C149.684 362.586 145.359 363.04 140.38 363.04V373.04ZM155.58 371.52L158.125 381.191C164.814 379.43 170.571 375.915 174.843 370.478L166.98 364.3L159.117 358.122C157.815 359.778 155.973 361.076 153.035 361.849L155.58 371.52ZM166.98 364.3L174.789 370.547C179.811 364.269 181.54 356.092 181.54 347.58H171.54H161.54C161.54 353.762 160.229 356.731 159.171 358.053L166.98 364.3ZM171.54 347.58H181.54V159.48H171.54H161.54V347.58H171.54ZM171.54 159.48H181.54C181.54 150.892 179.883 142.447 174.573 136.252L166.98 142.76L159.387 149.268C160.157 150.166 161.54 152.868 161.54 159.48H171.54ZM166.98 142.76L175.044 136.846C170.733 130.967 164.747 127.251 157.64 125.754L155.58 135.54L153.52 145.325C156.039 145.856 157.654 146.953 158.916 148.674L166.98 142.76ZM155.58 135.54L158.256 125.905C152.687 124.358 146.702 123.64 140.38 123.64V133.64V143.64C145.205 143.64 149.353 144.189 152.904 145.175L155.58 135.54ZM140.38 133.64V123.64H135.44V133.64V143.64H140.38V133.64ZM135.44 133.64H145.44V117.68H135.44H125.44V133.64H135.44ZM135.44 117.68V127.68H237.66V117.68V107.68H135.44V117.68ZM237.66 117.68V127.68C258.949 127.68 275.864 130.384 288.779 135.369L292.38 126.04L295.981 116.711C280.016 110.549 260.451 107.68 237.66 107.68V117.68ZM292.38 126.04L288.923 135.423C301.725 140.14 310.587 147.043 316.3 155.817L324.68 150.36L333.06 144.903C324.586 131.89 311.915 122.58 295.837 116.657L292.38 126.04ZM324.68 150.36L316.36 155.907C322.082 164.491 325.32 175.964 325.32 191.02H335.32H345.32C345.32 173.142 341.465 157.509 333.001 144.813L324.68 150.36ZM335.32 191.02H325.32C325.32 203.062 322.828 212.603 318.365 220.109L326.96 225.22L335.555 230.331C342.239 219.09 345.32 205.831 345.32 191.02H335.32ZM326.96 225.22L318.427 220.005C313.602 227.901 307.549 234.14 300.248 238.864L305.68 247.26L311.113 255.656C321.038 249.234 329.171 240.779 335.493 230.434L326.96 225.22ZM305.68 247.26L300.133 238.939C292.479 244.042 284.537 247.947 276.298 250.693L279.46 260.18L282.622 269.667C292.623 266.333 302.161 261.625 311.227 255.58L305.68 247.26ZM279.46 260.18L271.004 265.518L323.064 347.978L331.52 342.64L339.976 337.302L287.916 254.842L279.46 260.18ZM331.52 342.64L323.136 348.09C326.567 353.369 329.925 358.079 333.211 362.187L341.02 355.94L348.829 349.693C346.035 346.201 343.06 342.044 339.904 337.19L331.52 342.64ZM341.02 355.94L333.211 362.187C336.579 366.397 340.081 370.074 343.738 373.122L350.14 365.44L356.542 357.758C354.119 355.739 351.541 353.083 348.829 349.693L341.02 355.94ZM350.14 365.44L344.043 373.366C347.968 376.386 352.095 378.806 356.43 380.473L360.02 371.14L363.61 361.807C361.359 360.941 358.898 359.561 356.237 357.514L350.14 365.44ZM360.02 371.14L356.657 380.557C361.362 382.238 366.308 383.04 371.42 383.04V373.04V363.04C368.425 363.04 365.771 362.575 363.383 361.723L360.02 371.14ZM371.42 373.04V383.04H372.56V373.04V363.04H371.42V373.04ZM372.56 373.04H362.56V389H372.56H382.56V373.04H372.56ZM372.56 389V379H367.24V389V399H372.56V389ZM367.24 389V379C355.511 379 345.98 378.624 338.563 377.906L337.6 387.86L336.637 397.814C344.927 398.616 355.156 399 367.24 399V389ZM337.6 387.86L338.922 377.948C331.946 377.018 326.622 375.564 322.704 373.801L318.6 382.92L314.496 392.039C320.711 394.836 328.054 396.676 336.278 397.772L337.6 387.86ZM318.6 382.92L323.072 373.976C319.228 372.054 315.668 369.319 312.394 365.636L304.92 372.28L297.446 378.924C302.279 384.361 307.838 388.719 314.128 391.864L318.6 382.92ZM304.92 372.28L312.602 365.878C309.218 361.817 305.45 356.432 301.308 349.61L292.76 354.8L284.212 359.99C288.684 367.355 293.022 373.623 297.238 378.682L304.92 372.28ZM292.76 354.8L301.335 349.655L250.035 264.155L241.46 269.3L232.885 274.445L284.185 359.945L292.76 354.8ZM241.46 269.3V259.3H209.92V269.3V279.3H241.46V269.3ZM209.92 269.3H199.92V347.58H209.92H219.92V269.3H209.92ZM209.92 347.58H199.92C199.92 355.944 201.464 363.979 206.036 370.214L214.1 364.3L222.164 358.386C221.162 357.021 219.92 353.91 219.92 347.58H209.92ZM214.1 364.3L206.507 370.808C210.857 375.883 216.378 379.365 222.824 381.155L225.5 371.52L228.176 361.885C225.502 361.142 223.423 359.81 221.693 357.792L214.1 364.3ZM225.5 371.52L223.44 381.305C229.013 382.479 234.904 383.04 241.08 383.04V373.04V363.04C236.109 363.04 231.613 362.588 227.56 361.735L225.5 371.52ZM241.08 373.04V383.04H246.02V373.04V363.04H241.08V373.04ZM246.02 373.04H236.02V389H246.02H256.02V373.04H246.02ZM246.02 389V379H135.44V389V399H246.02V389ZM236.52 251.44V261.44C252.218 261.44 265.688 259.213 276.06 253.87L271.48 244.98L266.9 236.09C260.552 239.361 250.715 241.44 236.52 241.44V251.44ZM271.48 244.98L276.269 253.759C286.592 248.128 294.147 239.811 298.587 229.027L289.34 225.22L280.093 221.412C277.44 227.856 273.088 232.712 266.691 236.201L271.48 244.98ZM289.34 225.22L298.625 228.934C302.786 218.53 304.66 206.155 304.66 192.16H294.66H284.66C284.66 204.511 282.987 214.177 280.055 221.506L289.34 225.22ZM294.66 192.16H304.66C304.66 177.714 302.679 165.185 298.015 155.236L288.96 159.48L279.905 163.724C282.841 169.988 284.66 179.246 284.66 192.16H294.66ZM288.96 159.48L298.064 155.342C293.195 144.631 285.074 136.872 274.147 132.373L270.34 141.62L266.533 150.867C272.833 153.461 277.125 157.609 279.856 163.618L288.96 159.48ZM270.34 141.62L274.376 132.471C263.996 127.891 250.922 125.92 235.76 125.92V135.92V145.92C249.478 145.92 259.457 147.749 266.304 150.769L270.34 141.62ZM235.76 135.92V125.92H209.92V135.92V145.92H235.76V135.92ZM209.92 135.92H199.92V251.44H209.92H219.92V135.92H209.92ZM209.92 251.44V261.44H236.52V251.44V241.44H209.92V251.44Z" fill="#FAF3F0" mask="url(#path-2-outside-1_8_14)"/>
</svg>
